<?xml version="1.0" encoding="iso-8859-1"?>
<!-- Generator: Adobe Illustrator 16.0.0, SVG Export Plug-In . SVG Version: 6.00 Build 0)  -->
<!DOCTYPE svg PUBLIC "-//W3C//DTD SVG 1.1//EN" "http://www.w3.org/Graphics/SVG/1.1/DTD/svg11.dtd">
<svg version="1.1" id="Capa_1" xmlns="http://www.w3.org/2000/svg" xmlns:xlink="http://www.w3.org/1999/xlink" x="0px" y="0px"
	 width="925px" height="925px" viewBox="0 0 925 925" style="enable-background:new 0 0 925 925;" xml:space="preserve">
<g>
	<g>
		<path d="M352.9,53.4H441.6c33.601,0,61.601,24,68,55.7H560.2C553.4,49.7,502.8,3.4,441.6,3.4H352.9
			c-61.2,0-111.8,46.3-118.601,105.7H284.9C291.3,77.3,319.3,53.4,352.9,53.4z"/>
		<path d="M127.2,322.4c71.8,46.4,167.7,72,270.1,72c102.4,0,198.2-25.6,270.101-72C732,280.7,769.5,226.8,774.1,169.7
			C756.8,148,730.2,134.1,700.2,134.1H561h-50H283.6h-50H94.4c-29.9,0-56.6,13.9-73.9,35.6C25.1,226.8,62.6,280.6,127.2,322.4z"/>
		<path d="M363.1,461.1c0,15.601,12.7,28.3,28.301,28.3H403.1c15.601,0,28.301-12.699,28.301-28.3v-22.6H363.1V461.1L363.1,461.1z"
			/>
		<path d="M94.4,617.201h419.5V553.5c0-7.699,3.1-15,8.6-20.4L618.2,439c5.399-5.3,12.6-8.2,20.1-8.2h156.2V243
			c-4.2,8.6-9,17.1-14.5,25.5c-21.5,32.9-52.2,62.3-91,87.4c-60.3,39-135.8,64.4-217.6,74.1v8.399V461
			c0,37.701-30.601,68.3-68.301,68.3H391.4c-37.7,0-68.301-30.6-68.301-68.3V438.4V430c-81.8-9.601-157.3-35.101-217.6-74.1
			c-38.8-25.1-69.5-54.5-91-87.4C9,260.1,4.2,251.6,0,243v279.8C0,574.9,42.3,617.201,94.4,617.201z"/>
		<g>
			<path d="M659.6,453.6c-13.399,0-26.5,5.5-36,15l-69.1,69.602c-9.5,9.6-14.7,22.199-14.7,35.699v43.301v12.5v12.5V870.9
				c0,2.4,0.2,4.801,0.5,7.1c3.4,24.6,24.601,43.6,50.2,43.6h283.8c27.9,0,50.7-22.699,50.7-50.699V504.201
				c0-24.5-17.4-44.901-40.5-49.601c-3.3-0.7-6.7-1-10.1-1h-54.9H807h-12.5H659.6L659.6,453.6z M819.5,503.6h54.8
				c0.4,0,0.7,0.301,0.7,0.701V871c0,0.1,0,0.1,0,0.201c-0.1,0.299-0.3,0.5-0.6,0.5c0,0,0,0-0.101,0H590.5
				c-0.4,0-0.7-0.301-0.7-0.701V642.201v-12.5v-12.5v-33h36.7c22.9,0,41.5-18.602,41.5-41.5V503.6h126.5H807H819.5L819.5,503.6z"/>
			<path d="M750,617.301H641.1c-9.199,0-17.199,5-21.6,12.4c-2.2,3.699-3.4,7.898-3.4,12.5v0.1c0,13.799,11.2,25,25,25h182.7
				c13.8,0,25-11.201,25-25c0-13.801-11.2-25-25-25h-50.7H750z"/>
			<path d="M823.8,774.801H641.1c-13.8,0-25,11.199-25,25c0,13.799,11.2,25,25,25h182.7c13.8,0,25-11.201,25-25
				C848.8,786,837.6,774.801,823.8,774.801z"/>
			<path d="M823.8,696.1H641.1c-13.8,0-25,11.201-25,25c0,13.801,11.2,25,25,25h182.7c13.8,0,25-11.199,25-25
				C848.8,707.301,837.6,696.1,823.8,696.1z"/>
		</g>
	</g>
</g>
<g>
</g>
<g>
</g>
<g>
</g>
<g>
</g>
<g>
</g>
<g>
</g>
<g>
</g>
<g>
</g>
<g>
</g>
<g>
</g>
<g>
</g>
<g>
</g>
<g>
</g>
<g>
</g>
<g>
</g>
</svg>
